<svg width="297" height="72" viewBox="0 0 297 72" fill="none" xmlns="http://www.w3.org/2000/svg">
<g filter="url(#filter0_i_20_4)">
<path d="M16.5866 70H0.768466L24.8707 0.181816H43.8935L67.9617 70H52.1435L34.6548 16.1364H34.1094L16.5866 70ZM15.598 42.5568H52.9617V54.0795H15.598V42.5568ZM90.6151 39.7273V70H76.0923V17.6364H89.9332V26.875H90.5469C91.706 23.8295 93.6491 21.4205 96.3764 19.6477C99.1037 17.8523 102.411 16.9545 106.297 16.9545C109.933 16.9545 113.104 17.75 115.808 19.3409C118.513 20.9318 120.615 23.2045 122.115 26.1591C123.615 29.0909 124.365 32.5909 124.365 36.6591V70H109.842V39.25C109.865 36.0455 109.047 33.5455 107.388 31.75C105.729 29.9318 103.445 29.0227 100.536 29.0227C98.581 29.0227 96.8537 29.4432 95.3537 30.2841C93.8764 31.125 92.7173 32.3523 91.8764 33.9659C91.0582 35.5568 90.6378 37.4773 90.6151 39.7273ZM179.379 32.5682L166.084 33.3864C165.857 32.25 165.368 31.2273 164.618 30.3182C163.868 29.3864 162.879 28.6477 161.652 28.1023C160.447 27.5341 159.004 27.25 157.322 27.25C155.072 27.25 153.175 27.7273 151.629 28.6818C150.084 29.6136 149.311 30.8636 149.311 32.4318C149.311 33.6818 149.811 34.7386 150.811 35.6023C151.811 36.4659 153.527 37.1591 155.959 37.6818L165.436 39.5909C170.527 40.6364 174.322 42.3182 176.822 44.6364C179.322 46.9545 180.572 50 180.572 53.7727C180.572 57.2045 179.561 60.2159 177.538 62.8068C175.538 65.3977 172.788 67.4205 169.288 68.875C165.811 70.3068 161.8 71.0227 157.254 71.0227C150.322 71.0227 144.8 69.5795 140.686 66.6932C136.595 63.7841 134.197 59.8295 133.493 54.8295L147.777 54.0795C148.209 56.1932 149.254 57.8068 150.913 58.9205C152.572 60.0114 154.697 60.5568 157.288 60.5568C159.834 60.5568 161.879 60.0682 163.425 59.0909C164.993 58.0909 165.788 56.8068 165.811 55.2386C165.788 53.9205 165.232 52.8409 164.141 52C163.05 51.1364 161.368 50.4773 159.095 50.0227L150.027 48.2159C144.913 47.1932 141.107 45.4205 138.607 42.8977C136.129 40.375 134.891 37.1591 134.891 33.25C134.891 29.8864 135.8 26.9886 137.618 24.5568C139.459 22.125 142.038 20.25 145.357 18.9318C148.697 17.6136 152.607 16.9545 157.084 16.9545C163.697 16.9545 168.902 18.3523 172.697 21.1477C176.516 23.9432 178.743 27.75 179.379 32.5682ZM213.376 71.0227C208.081 71.0227 203.501 69.8977 199.638 67.6477C195.797 65.375 192.831 62.2159 190.74 58.1705C188.649 54.1023 187.604 49.3864 187.604 44.0227C187.604 38.6136 188.649 33.8864 190.74 29.8409C192.831 25.7727 195.797 22.6136 199.638 20.3636C203.501 18.0909 208.081 16.9545 213.376 16.9545C218.672 16.9545 223.24 18.0909 227.081 20.3636C230.945 22.6136 233.922 25.7727 236.013 29.8409C238.104 33.8864 239.149 38.6136 239.149 44.0227C239.149 49.3864 238.104 54.1023 236.013 58.1705C233.922 62.2159 230.945 65.375 227.081 67.6477C223.24 69.8977 218.672 71.0227 213.376 71.0227ZM213.445 59.7727C215.854 59.7727 217.865 59.0909 219.479 57.7273C221.092 56.3409 222.308 54.4545 223.126 52.0682C223.967 49.6818 224.388 46.9659 224.388 43.9205C224.388 40.875 223.967 38.1591 223.126 35.7727C222.308 33.3864 221.092 31.5 219.479 30.1136C217.865 28.7273 215.854 28.0341 213.445 28.0341C211.013 28.0341 208.967 28.7273 207.308 30.1136C205.672 31.5 204.433 33.3864 203.592 35.7727C202.774 38.1591 202.365 40.875 202.365 43.9205C202.365 46.9659 202.774 49.6818 203.592 52.0682C204.433 54.4545 205.672 56.3409 207.308 57.7273C208.967 59.0909 211.013 59.7727 213.445 59.7727ZM263.115 39.7273V70H248.592V17.6364H262.433V26.875H263.047C264.206 23.8295 266.149 21.4205 268.876 19.6477C271.604 17.8523 274.911 16.9545 278.797 16.9545C282.433 16.9545 285.604 17.75 288.308 19.3409C291.013 20.9318 293.115 23.2045 294.615 26.1591C296.115 29.0909 296.865 32.5909 296.865 36.6591V70H282.342V39.25C282.365 36.0455 281.547 33.5455 279.888 31.75C278.229 29.9318 275.945 29.0227 273.036 29.0227C271.081 29.0227 269.354 29.4432 267.854 30.2841C266.376 31.125 265.217 32.3523 264.376 33.9659C263.558 35.5568 263.138 37.4773 263.115 39.7273Z" fill="#B275E6"/>
</g>
<defs>
<filter id="filter0_i_20_4" x="0.768463" y="0.181824" width="296.097" height="74.8409" filterUnits="userSpaceOnUse" color-interpolation-filters="sRGB">
<feFlood flood-opacity="0" result="BackgroundImageFix"/>
<feBlend mode="normal" in="SourceGraphic" in2="BackgroundImageFix" result="shape"/>
<feColorMatrix in="SourceAlpha" type="matrix" values="0 0 0 0 0 0 0 0 0 0 0 0 0 0 0 0 0 0 127 0" result="hardAlpha"/>
<feOffset dy="4"/>
<feGaussianBlur stdDeviation="2"/>
<feComposite in2="hardAlpha" operator="arithmetic" k2="-1" k3="1"/>
<feColorMatrix type="matrix" values="0 0 0 0 0 0 0 0 0 0 0 0 0 0 0 0 0 0 0.25 0"/>
<feBlend mode="normal" in2="shape" result="effect1_innerShadow_20_4"/>
</filter>
</defs>
</svg>
